# xmcd
#
# Track frame offsets:
#	150
#	12512
#	26210
#	39200
#	63115
#	75052
#	89412
#	105005
#	118915
#	132542
#	146060
#	158377
#	171282
#	182710
#	197285
#
# Disc length: 2786 seconds
#
# Revision: 1
# Processed by: cddbd v1.5.1PL0 Copyright (c) Steve Scherf et al.
# Submitted via: audiograbber 1.83.01
#
DISCID=b30ae00f
DTITLE=Various Artist - Living the blues - Texas and West Coast CD2
DYEAR=1989
DGENRE=Blues
TTITLE0=Johnny Guitar Watson - Gettin' drunk
TTITLE1=Mercy Dee Walton - Dark muddy bottom
TTITLE2=Goree Carter - Every dog has his day
TTITLE3=T-Bone Walker - How long blues
TTITLE4=Little Esther - Better beware
TTITLE5=Jimmy Witherspoon - Back door blues
TTITLE6=Philip walker - Hey hey baby's gone
TTITLE7=Saunders King - S K Blues
TTITLE8=Floyd Dixon - Bad neighborhood
TTITLE9=Roy Milton - RM blues
TTITLE10=Little Willie Littlefield - The midnight hour was shining
TTITLE11=Smokey Hogg - I want a roller
TTITLE12=Frankie Lee Sims - Lucy Mae blues
TTITLE13=Duke Henderson - Ten days of agony
TTITLE14=Lowell Fulson - Blues never fail
EXTD=
EXTT0=
EXTT1=
EXTT2=
EXTT3=
EXTT4=
EXTT5=
EXTT6=
EXTT7=
EXTT8=
EXTT9=
EXTT10=
EXTT11=
EXTT12=
EXTT13=
EXTT14=
PLAYORDER=
